<mxfile host="app.diagrams.net" modified="2023-04-21T01:09:26.039Z" agent="Mozilla/5.0 (Windows NT 10.0; Win64; x64) AppleWebKit/537.36 (KHTML, like Gecko) Chrome/112.0.0.0 Safari/537.36" etag="FPlJzwKbqm42mNupu5KW" version="21.2.1" type="device">
  <diagram name="Page-1" id="0dlH-yhcQ4KBo-hxxVNo">
    <mxGraphModel dx="794" dy="403" grid="1" gridSize="10" guides="1" tooltips="1" connect="1" arrows="1" fold="1" page="1" pageScale="1" pageWidth="850" pageHeight="1100" math="0" shadow="0">
      <root>
        <mxCell id="0" />
        <mxCell id="1" parent="0" />
        <mxCell id="EgDfjaZJcWX762xtRPzO-1" value="" style="rounded=0;whiteSpace=wrap;html=1;" vertex="1" parent="1">
          <mxGeometry x="40" y="40" width="720" height="60" as="geometry" />
        </mxCell>
        <mxCell id="EgDfjaZJcWX762xtRPzO-4" value="&lt;font style=&quot;font-size: 36px;&quot;&gt;Good Order&lt;/font&gt;" style="text;html=1;strokeColor=none;fillColor=none;align=center;verticalAlign=middle;whiteSpace=wrap;rounded=0;" vertex="1" parent="1">
          <mxGeometry x="50" y="50" width="200" height="40" as="geometry" />
        </mxCell>
        <mxCell id="EgDfjaZJcWX762xtRPzO-5" value="" style="rounded=0;whiteSpace=wrap;html=1;" vertex="1" parent="1">
          <mxGeometry x="40" y="100" width="720" height="260" as="geometry" />
        </mxCell>
      </root>
    </mxGraphModel>
  </diagram>
</mxfile>
